<svg width="1600" height="900" viewBox="0 0 1600 900" fill="none" xmlns="http://www.w3.org/2000/svg">
  <rect width="1600" height="900" rx="36" fill="#EAF4FF"/>
  <rect x="70" y="80" width="1460" height="740" rx="28" fill="url(#bg)"/>
  <circle cx="1260" cy="250" r="170" fill="#D7EBFF"/>
  <circle cx="320" cy="700" r="180" fill="#CFE7FF"/>
  <rect x="230" y="240" width="360" height="320" rx="24" fill="#FFFFFF" stroke="#B8D9FF" stroke-width="4"/>
  <rect x="260" y="280" width="300" height="28" rx="14" fill="#DDEEFF"/>
  <rect x="260" y="330" width="220" height="20" rx="10" fill="#C8E4FF"/>
  <rect x="260" y="370" width="270" height="20" rx="10" fill="#C8E4FF"/>
  <rect x="260" y="410" width="180" height="20" rx="10" fill="#C8E4FF"/>
  <circle cx="500" cy="500" r="66" fill="#F2F9FF" stroke="#7DB6FF" stroke-width="8"/>
  <circle cx="500" cy="500" r="36" fill="#7DB6FF"/>
  <rect x="448" y="430" width="104" height="24" rx="12" fill="#2F7CC5"/>
  <rect x="438" y="542" width="124" height="18" rx="9" fill="#5A9FE0"/>
  <rect x="790" y="230" width="430" height="330" rx="28" fill="#FFFFFF" stroke="#B8D9FF" stroke-width="4"/>
  <rect x="838" y="288" width="128" height="128" rx="24" fill="#F6FBFF" stroke="#7DB6FF" stroke-width="8"/>
  <path d="M874 352C874 322.176 898.176 298 928 298C957.824 298 982 322.176 982 352V382H874V352Z" fill="#7DB6FF"/>
  <rect x="826" y="394" width="152" height="24" rx="12" fill="#DDEEFF"/>
  <rect x="826" y="434" width="242" height="20" rx="10" fill="#C8E4FF"/>
  <rect x="826" y="468" width="196" height="20" rx="10" fill="#C8E4FF"/>
  <rect x="826" y="502" width="158" height="20" rx="10" fill="#C8E4FF"/>
  <rect x="1080" y="304" width="84" height="208" rx="18" fill="#1E4F84"/>
  <rect x="1098" y="332" width="48" height="152" rx="12" fill="#2F7CC5"/>
  <path d="M1098 372C1104.4 364.67 1116.43 354.35 1142 354.35" stroke="#8CC6FF" stroke-width="8" stroke-linecap="round"/>
  <path d="M1100 420H1138" stroke="#8CC6FF" stroke-width="8" stroke-linecap="round"/>
  <path d="M1100 454H1138" stroke="#8CC6FF" stroke-width="8" stroke-linecap="round"/>
  <path d="M1100 486H1138" stroke="#8CC6FF" stroke-width="8" stroke-linecap="round"/>
  <path d="M1184 236L1362 258" stroke="#4B91D1" stroke-width="12" stroke-linecap="round"/>
  <circle cx="1188" cy="234" r="18" fill="#4B91D1"/>
  <circle cx="1360" cy="258" r="18" fill="#4B91D1"/>
  <defs>
    <linearGradient id="bg" x1="70" y1="80" x2="1530" y2="820" gradientUnits="userSpaceOnUse">
      <stop stop-color="#F7FCFF"/>
      <stop offset="1" stop-color="#EAF6FF"/>
    </linearGradient>
  </defs>
</svg>
